<?xml version="1.0" encoding="utf-8"?>
<!-- Generator: Adobe Illustrator 23.0.3, SVG Export Plug-In . SVG Version: 6.00 Build 0)  -->
<svg version="1.1" id="图层_1" xmlns="http://www.w3.org/2000/svg" xmlns:xlink="http://www.w3.org/1999/xlink" x="0px" y="0px"
	 viewBox="0 0 20 20" style="enable-background:new 0 0 20 20;" xml:space="preserve">
<style type="text/css">
	.st0{fill-rule:evenodd;clip-rule:evenodd;fill:#FFB000;}
	.st1{fill-rule:evenodd;clip-rule:evenodd;fill:#4772FA;}
</style>
<title>滴答logo</title>
<desc>Created with Sketch.</desc>
<g id="页面-1">
	<g id="app管理" transform="translate(-144.000000, -22.000000)">
		<g id="Group-84-Copy">
			<g id="分组-3">
				<g id="滴答logo" transform="translate(144.000000, 22.000000)">
					<g id="Group-18">
						<path id="Fill-16" class="st0" d="M7,7.6l-1.7,2l4,3.2c0.2,0.2,0.5,0.3,0.8,0.3c0,0,0.1,0,0.1,0c0.3,0,0.7-0.2,0.9-0.5
							l7.1-8.8l-2.1-1.6L9.9,10L7,7.6z"/>
						<path id="Fill-17" class="st1" d="M10,17.8c-4.3,0-7.8-3.5-7.8-7.8c0-4.3,3.5-7.8,7.8-7.8V0C4.5,0,0,4.5,0,10s4.5,10,10,10
							s10-4.5,10-10h-2.2C17.7,14.3,14.3,17.8,10,17.8"/>
					</g>
				</g>
			</g>
		</g>
	</g>
</g>
</svg>
